<?xml version="1.0" encoding="UTF-8" standalone="no"?>
<!-- Created with Inkscape (http://www.inkscape.org/) -->

<svg
   version="1.1"
   id="svg113"
   width="750"
   height="550"
   viewBox="0 0 750 550"
   sodipodi:docname="ChatGPT Image Apr 25, 2025, 01_51_52 PM.png"
   inkscape:export-filename="ChatGPT Image Apr 25, 2025, 01_51_52 PM.svg"
   inkscape:export-xdpi="93.271576"
   inkscape:export-ydpi="93.271576"
   xmlns:inkscape="http://www.inkscape.org/namespaces/inkscape"
   xmlns:sodipodi="http://sodipodi.sourceforge.net/DTD/sodipodi-0.dtd"
   xmlns="http://www.w3.org/2000/svg"
   xmlns:svg="http://www.w3.org/2000/svg">
  <defs
     id="defs117" />
  <sodipodi:namedview
     id="namedview115"
     pagecolor="#ffffff"
     bordercolor="#000000"
     borderopacity="0.25"
     inkscape:showpageshadow="2"
     inkscape:pageopacity="0.0"
     inkscape:pagecheckerboard="0"
     inkscape:deskcolor="#d1d1d1"
     showgrid="false"
     showborder="false" />
  <g
     inkscape:groupmode="layer"
     inkscape:label="Image"
     id="g119">
    <path
       style="fill:#005293;fill-opacity:1;stroke-width:0.838241"
       d="m 449.19157,547.38275 h -9.35116 v -48.35276 -48.35276 h 9.35116 9.35115 v 3.31988 3.31988 l 4.24293,-2.83773 c 2.33361,-1.56075 6.18494,-3.46488 8.5585,-4.2314 3.03385,-0.97975 6.25525,-1.30067 10.84644,-1.08053 4.78726,0.22954 7.83265,0.90059 11.40688,2.51351 2.68181,1.21019 6.7645,4.03649 9.07265,6.28066 2.30814,2.24418 5.37297,6.34605 6.81072,9.11528 1.43775,2.76923 3.0755,7.65115 3.63946,10.84873 0.79797,4.52444 0.79979,7.32596 0.009,12.63258 -0.64032,4.2924 -1.97645,8.71779 -3.60623,11.94417 -1.74019,3.4449 -4.2939,6.62539 -7.78885,9.70048 -3.13678,2.75994 -7.08683,5.28513 -9.95599,6.36467 -3.52088,1.32475 -6.63295,1.79355 -11.98208,1.80495 -4.80215,0.0102 -8.29204,-0.43214 -10.40439,-1.31887 -1.74818,-0.73386 -4.90419,-2.4887 -7.01337,-3.89963 l -3.83518,-2.56533 v 17.39711 17.39711 z m 26.82392,-43.05127 c 3.00564,0.0497 5.59419,-0.55789 8.61746,-2.02268 2.53888,-1.23012 5.21799,-3.36093 6.49519,-5.1659 1.19562,-1.68969 2.57778,-4.11922 3.07147,-5.39897 0.49369,-1.27973 0.89762,-4.67775 0.89762,-7.55114 0,-4.11349 -0.50507,-6.16435 -2.37538,-9.64531 -1.71942,-3.20011 -3.50494,-5.09996 -6.46574,-6.87976 -3.1308,-1.88197 -5.37422,-2.53826 -9.56304,-2.7976 -3.82249,-0.23665 -6.6174,0.0862 -9.26914,1.0709 -2.08807,0.77533 -4.94056,2.52205 -6.33885,3.8816 l -2.54236,2.47189 v 12.17992 12.17993 l 2.33779,2.12 c 1.28578,1.166 3.27182,2.58862 4.4134,3.16138 1.14159,0.57275 3.05433,1.33012 4.25053,1.68303 1.1962,0.35291 4.10817,0.67363 6.47105,0.71271 z M 73.135112,519.82872 c -4.271238,0.11179 -9.201998,-0.14635 -10.957258,-0.57364 -1.75524,-0.4273 -5.19817,-1.76085 -7.65094,-2.96346 -2.45277,-1.20261 -5.8607,-3.25931 -7.57316,-4.57043 -1.71247,-1.31113 -4.43263,-4.33107 -6.04478,-6.71099 -1.61217,-2.37992 -3.37778,-5.66605 -3.92358,-7.3025 -0.5458,-1.63647 -1.35413,-5.13656 -1.7963,-7.778 -0.51313,-3.06541 -0.50225,-6.87071 0.0301,-10.52003 0.4587,-3.14458 1.85753,-7.82726 3.10851,-10.40595 1.26201,-2.60143 4.38123,-6.73685 7.00709,-9.28993 2.60321,-2.53106 6.87903,-5.58574 9.50317,-6.78915 2.62384,-1.20325 6.44931,-2.56402 8.50105,-3.02391 2.05175,-0.4599 5.52872,-0.84527 7.72661,-0.85638 2.197878,-0.0111 6.023348,0.39756 8.501038,0.90818 2.47769,0.5106 6.02738,1.67761 7.88817,2.59333 1.8608,0.91574 4.78092,2.75701 6.48916,4.09174 1.70822,1.33472 4.29814,4.04095 5.75534,6.01384 1.457218,1.97289 2.649478,3.90654 2.649478,4.29699 0,0.39045 -3.219458,2.37229 -7.154348,4.40411 l -7.15437,3.6942 -1.89973,-2.34818 c -1.04487,-1.29151 -2.89415,-3.24766 -4.10954,-4.34701 -1.21539,-1.09934 -3.54871,-2.3622 -5.18515,-2.80634 -1.63646,-0.44414 -4.12301,-0.80753 -5.525688,-0.80753 -1.40267,0 -3.90929,0.36706 -5.57027,0.81569 -1.66096,0.44864 -4.30239,2.02733 -5.86983,3.50821 -1.56744,1.48087 -3.58451,4.29714 -4.48239,6.25836 -1.02567,2.24038 -1.64388,5.48362 -1.66311,8.72509 -0.0212,3.56315 0.55782,6.48917 1.87147,9.4582 1.04616,2.36444 3.18225,5.39181 4.74688,6.7275 1.56463,1.33569 4.28979,2.81869 6.05592,3.29555 1.76612,0.47686 4.35877,0.86092 5.761438,0.85348 1.40267,-0.007 4.13291,-0.71226 6.0672,-1.56625 1.93429,-0.854 5.09175,-2.93607 7.01658,-4.62683 l 3.49968,-3.07413 4.66727,2.75026 c 2.567,1.51264 5.69894,3.55009 6.959878,4.52766 l 2.29261,1.7774 -4.561848,4.6898 c -3.08513,3.17165 -6.60909,5.67355 -10.88613,7.72879 -5.71121,2.7444 -7.07712,3.0587 -14.09019,3.24226 z m 101.539618,0.0493 c -6.2605,0.17804 -9.30313,-0.13928 -13.16113,-1.37257 -2.75995,-0.88228 -7.08788,-2.99016 -9.61763,-4.68417 -2.52975,-1.69401 -6.0867,-5.09925 -7.90431,-7.56717 -1.81763,-2.46793 -3.993,-6.40478 -4.83416,-8.74855 -1.11583,-3.10914 -1.52937,-6.73174 -1.52937,-13.39735 0,-8.89818 0.0833,-9.29983 3.20139,-15.43289 2.20312,-4.33337 4.57505,-7.49774 7.60654,-10.14777 2.42283,-2.11796 5.77556,-4.53058 7.4505,-5.3614 1.67495,-0.83081 5.29418,-2.14619 8.04273,-2.92307 3.55059,-1.00357 6.98958,-1.31085 11.87863,-1.06134 5.52602,0.282 8.10154,0.89803 13.07738,3.12798 4.63991,2.0794 7.44755,4.07753 11.17875,7.95563 3.34745,3.47925 5.59674,6.75668 6.85395,9.98683 1.08967,2.79973 2.05885,7.60922 2.32025,11.51431 0.2715,4.05564 0.0277,8.46594 -0.61687,11.15833 -0.58619,2.44862 -2.2331,6.61401 -3.65981,9.2564 -1.42671,2.64239 -4.47321,6.44708 -6.77001,8.45486 -2.29678,2.00778 -6.69548,4.85647 -9.77488,6.33044 -4.94968,2.36918 -6.54315,2.70679 -13.74195,2.9115 z M 174.88,504.90044 c 2.81238,-0.18288 5.21233,-1.01576 7.65094,-2.6552 2.40509,-1.61691 4.36531,-3.96944 6.06667,-7.28083 2.07251,-4.03374 2.50424,-5.87686 2.46066,-10.50476 -0.0421,-4.47042 -0.55364,-6.58675 -2.51351,-10.39896 -1.67113,-3.25054 -3.63004,-5.57277 -6.10518,-7.23745 -2.99238,-2.01256 -4.52486,-2.45626 -8.56434,-2.47963 -4.01653,-0.0232 -5.68006,0.42815 -9.0605,2.45854 -2.93189,1.76098 -4.7691,3.67431 -6.29332,6.55407 -1.4933,2.82133 -2.25177,5.77264 -2.47626,9.63543 -0.22107,3.80402 0.14197,6.93122 1.14576,9.86962 0.88675,2.59576 2.76411,5.5601 4.73469,7.47606 1.79592,1.74614 4.52335,3.54713 6.06096,4.00219 1.5376,0.45507 4.63965,0.70748 6.89343,0.56092 z m 67.73608,15.15522 c -4.1815,-0.023 -7.83865,-0.58304 -10.62631,-1.62741 -2.33779,-0.87582 -5.66076,-2.72376 -7.38438,-4.10651 -1.72363,-1.38277 -4.21018,-4.6452 -5.52569,-7.24987 l -2.39182,-4.73575 -0.2567,-26.24273 -0.25671,-26.24274 h 9.39533 9.39534 v 22.46897 c 0,20.78 0.1278,22.72567 1.70028,25.88394 1.08363,2.17643 2.89842,4.0697 5.00385,5.22022 1.81696,0.99288 4.69832,1.80524 6.40301,1.80524 1.7047,0 4.52172,-0.57764 6.26005,-1.28366 1.73832,-0.70601 4.21501,-2.26563 5.50376,-3.46582 1.28874,-1.20019 2.72116,-3.50511 3.18315,-5.12204 0.46199,-1.61694 0.84212,-12.51746 0.84472,-24.22337 l 0.005,-21.28348 h 8.9261 8.9261 v 34.30153 34.30153 h -8.9261 -8.9261 v -3.88159 -3.88158 l -2.76284,2.5916 c -1.51956,1.42538 -4.86685,3.54039 -7.43842,4.70005 -3.73777,1.68555 -5.9544,2.10144 -11.05136,2.07347 z m 81.61007,-0.23025 c -4.4418,0.12649 -9.03236,-0.0743 -10.20126,-0.4462 -1.16889,-0.37189 -3.74045,-1.47844 -5.71457,-2.45899 -1.97412,-0.98056 -4.96131,-2.95408 -6.6382,-4.38559 -1.67688,-1.43152 -4.11772,-4.12584 -5.42408,-5.98737 -1.30636,-1.86152 -3.2418,-5.61626 -4.30098,-8.34385 -1.49717,-3.85547 -1.93147,-6.70693 -1.95128,-12.81142 -0.0194,-5.97565 0.41844,-9.10224 1.83213,-13.08311 1.02169,-2.87702 2.76018,-6.59646 3.86333,-8.26542 1.10314,-1.66897 3.67113,-4.59637 5.70663,-6.50534 2.03551,-1.90898 5.9962,-4.51259 8.80155,-5.7858 4.65759,-2.11387 5.94978,-2.31494 14.87684,-2.31494 7.91481,0 10.34271,0.29381 12.75157,1.54313 1.63645,0.84872 3.8361,2.30835 4.8881,3.24362 l 1.91274,1.70048 v -17.50149 -17.50147 h 8.9261 8.9261 v 48.79399 48.79399 l -9.1022,-0.2346 -9.1022,-0.23459 0.0659,-3.09954 c 0.0362,-1.70474 -0.0561,-3.09953 -0.20515,-3.09953 -0.14908,0 -1.34276,0.9681 -2.65264,2.15135 -1.30987,1.18324 -3.91177,2.92791 -5.782,3.87704 -2.61271,1.32594 -5.27122,1.77896 -11.47642,1.95565 z m 3.82547,-15.49389 c 2.78715,0.036 5.74197,-0.62041 8.58256,-1.90643 2.7834,-1.26013 4.98665,-2.99109 6.16326,-4.8421 1.63008,-2.56443 1.83123,-4.06613 1.83123,-13.67159 0,-10.44206 -0.0721,-10.87406 -2.2322,-13.37 -1.22771,-1.41861 -3.7349,-3.32466 -5.57154,-4.23568 -2.36301,-1.1721 -5.04179,-1.66162 -9.16229,-1.67428 -4.26234,-0.0131 -6.75931,0.44657 -9.31669,1.71508 -1.92156,0.95313 -4.5998,3.21752 -5.95164,5.03196 -1.35184,1.81443 -2.92222,5.18088 -3.48974,7.48097 -0.60744,2.4619 -0.79682,5.90459 -0.46044,8.37008 0.31428,2.30344 1.31505,5.60533 2.22394,7.33752 0.90889,1.73219 2.98811,4.18559 4.62048,5.45199 1.63238,1.26641 4.21549,2.74245 5.74025,3.28011 1.52477,0.53766 4.68503,1.00223 7.02282,1.03237 z m 73.53407,15.50476 c -6.16311,0.18111 -10.367,-0.12974 -13.58107,-1.00422 -2.56022,-0.69659 -6.25794,-2.17989 -8.21715,-3.29624 -1.9592,-1.11634 -4.93321,-3.58707 -6.60891,-5.49049 -1.67571,-1.90343 -3.04657,-3.85876 -3.04636,-4.34518 2.2e-4,-0.48642 2.91282,-2.46155 6.47247,-4.38918 l 6.47206,-3.50478 1.62389,2.00722 c 0.89314,1.10397 3.72963,3.00891 6.30331,4.23319 3.37247,1.60426 5.95219,2.21486 9.2364,2.18617 2.50633,-0.0219 5.73575,-0.6325 7.17649,-1.35688 1.44074,-0.72438 3.01341,-2.03265 3.49483,-2.90726 0.48142,-0.8746 0.8753,-2.18947 0.8753,-2.92191 0,-0.73245 -0.91195,-2.2184 -2.02655,-3.30211 -1.29255,-1.25672 -5.68026,-3.07605 -12.114,-5.02297 -5.54809,-1.67891 -11.86583,-3.92405 -14.03942,-4.98919 -2.17359,-1.06515 -5.12075,-3.31525 -6.54924,-5.00023 -1.46724,-1.73068 -2.9829,-4.8119 -3.48361,-7.08195 -0.61609,-2.7931 -0.61486,-5.20696 0.004,-7.91655 0.48972,-2.14401 1.85839,-5.26352 3.04149,-6.93227 1.18311,-1.66873 3.61083,-3.97329 5.39494,-5.12123 1.78411,-1.14794 5.19423,-2.70743 7.57806,-3.46553 3.31173,-1.05319 6.39078,-1.29026 13.05173,-1.00489 6.25949,0.26816 10.08868,0.89143 13.58043,2.21046 2.70975,1.02363 6.66197,3.45941 8.9261,5.50121 3.33482,3.00736 3.8346,3.8082 2.78803,4.46754 -0.70134,0.44183 -3.56798,2.23213 -6.37031,3.97844 l -5.09517,3.17512 -3.98956,-2.41132 c -2.97252,-1.7966 -5.3578,-2.50675 -9.35663,-2.78568 -4.08815,-0.28515 -6.07605,-0.0173 -8.34242,1.12416 -2.64396,1.3316 -2.97537,1.86496 -2.97537,4.78855 0,2.9871 0.31311,3.45593 3.40042,5.0916 1.87023,0.99084 7.53753,2.95551 12.59401,4.36593 5.05647,1.41042 10.65093,3.28727 12.43211,4.17077 1.78119,0.88351 4.22831,2.75008 5.43805,4.14792 1.20974,1.39785 2.59464,3.92478 3.07756,5.61541 0.48292,1.69062 0.88017,4.0292 0.88277,5.19684 0.003,1.16764 -0.59067,4.07237 -1.31839,6.45497 -0.73934,2.42063 -2.61031,5.71725 -4.24049,7.47165 -1.64139,1.76647 -5.24556,4.15894 -8.24055,5.47014 -4.54069,1.98789 -6.63529,2.36903 -14.24928,2.59277 z m 155.20238,0.24283 c -5.4917,-0.0198 -9.16427,-0.51417 -12.76786,-1.71899 -2.78228,-0.93022 -7.09658,-3.00649 -9.58733,-4.61394 -2.49075,-1.60744 -6.05447,-4.99435 -7.91936,-7.52647 -1.8649,-2.53212 -3.94027,-6.40308 -4.61194,-8.60215 -0.67167,-2.19906 -1.46171,-6.12839 -1.75564,-8.73184 -0.29394,-2.60345 -0.13824,-7.08043 0.34601,-9.94885 0.48423,-2.86841 1.82761,-7.22688 2.98528,-9.68548 1.15767,-2.4586 3.9092,-6.3457 6.1145,-8.638 2.20531,-2.29231 5.99374,-5.27155 8.41872,-6.62053 2.42499,-1.34898 6.8638,-3.06485 9.86402,-3.81304 3.93733,-0.98188 7.22875,-1.21877 11.83073,-0.85147 4.86905,0.3886 7.81655,1.19721 12.47241,3.42161 4.04694,1.93348 7.39221,4.3138 9.95024,7.08009 2.11949,2.29205 4.78347,6.09857 5.91996,8.45894 1.13649,2.36037 2.49273,6.2626 3.01386,8.67162 0.52114,2.40902 0.94752,6.22145 0.94752,8.47207 v 4.09203 h -26.88457 -26.88457 l 0.53906,2.68626 c 0.29647,1.47745 1.60455,4.17404 2.90684,5.99244 1.3023,1.81839 3.95209,4.15774 5.88843,5.19855 1.93635,1.04081 5.37472,2.10588 7.64085,2.36684 2.585,0.29766 6.15092,-0.0314 9.57019,-0.88307 2.99748,-0.74664 6.68935,-2.27664 8.20415,-3.40001 1.5148,-1.12337 3.19115,-2.0425 3.72521,-2.0425 0.53407,0 3.65892,1.5263 6.94412,3.39178 l 5.97308,3.39178 -3.18052,3.16686 c -1.74928,1.74178 -5.32679,4.27139 -7.95002,5.62136 -2.62323,1.34998 -6.84732,3.04789 -9.38685,3.77314 -2.78149,0.79435 -7.68253,1.30764 -12.32652,1.29097 z m -0.426,-42.126 h 17.90949 l -0.59004,-1.85972 c -0.32452,-1.02285 -1.08124,-2.78959 -1.6816,-3.92608 -0.60036,-1.1365 -2.25113,-3.13809 -3.66837,-4.44797 -1.41724,-1.30989 -4.41687,-2.84569 -6.66583,-3.41289 -2.4609,-0.62066 -5.6403,-0.80238 -7.98506,-0.45641 -2.14282,0.31619 -5.31368,1.42677 -7.04636,2.46794 -1.79545,1.07889 -4.22884,3.72136 -5.65805,6.14418 -1.37924,2.33812 -2.5113,4.53009 -2.5157,4.87104 -0.004,0.34095 8.0513,0.61991 17.90152,0.61991 z m 79.54247,41.88516 c -4.59024,0.12581 -9.3676,-0.23545 -11.68278,-0.88344 -2.15428,-0.60297 -5.91452,-2.15342 -8.35608,-3.44546 -2.44156,-1.29202 -6.48037,-4.49275 -8.97514,-7.1127 -2.73207,-2.86917 -5.31931,-6.66497 -6.50579,-9.54477 -1.65668,-4.02108 -1.97223,-6.29533 -1.98481,-14.30506 -0.0145,-9.1881 0.0878,-9.72714 2.89986,-15.29104 1.73906,-3.44082 4.67022,-7.43425 7.26652,-9.89991 2.39342,-2.27299 6.50487,-5.15361 9.13655,-6.40137 2.63168,-1.24777 6.80686,-2.69029 9.27816,-3.20559 2.4713,-0.51532 7.2775,-0.7322 10.68045,-0.48197 3.97533,0.29232 7.85724,1.19836 10.85885,2.53445 2.56944,1.14372 6.05722,3.107 7.75066,4.36284 1.69342,1.25584 4.37681,3.93599 5.96308,5.95589 1.58628,2.0199 2.88414,4.14387 2.88414,4.71994 0,0.57607 -3.27064,2.66126 -7.26809,4.63376 -7.04228,3.47495 -7.29777,3.53501 -8.22382,1.93328 -0.52567,-0.9092 -2.15046,-2.82357 -3.61066,-4.25415 -1.46019,-1.43059 -4.16712,-3.00928 -6.01541,-3.5082 -1.8483,-0.49892 -4.69945,-0.90103 -6.3359,-0.89359 -1.63646,0.007 -4.54997,0.70878 -6.47448,1.55852 -1.92451,0.84972 -4.53895,2.87048 -5.80987,4.49056 -1.27092,1.62008 -2.85233,4.69523 -3.51426,6.83367 -0.66191,2.13844 -1.20349,5.30278 -1.20349,7.03188 0,1.72909 0.78146,5.17454 1.73657,7.65655 1.07768,2.80053 2.97079,5.59689 4.98951,7.37014 1.78912,1.57156 4.68967,3.3184 6.44566,3.88187 1.83008,0.58724 4.78633,0.81212 6.92661,0.52688 2.05364,-0.27367 4.89778,-1.08279 6.32033,-1.79802 1.42255,-0.71524 4.09497,-2.62553 5.93872,-4.24508 l 3.35229,-2.94464 6.36216,4.02458 c 3.49919,2.21351 6.36711,4.3258 6.37314,4.69396 0.006,0.36816 -1.96883,2.70473 -4.38861,5.19237 -2.92192,3.00387 -6.52373,5.5437 -10.72389,7.562 -5.70224,2.74009 -7.08812,3.05993 -14.09018,3.25185 z m 64.06797,-0.078 c -5.79895,0.1944 -10.26631,-0.0852 -12.75158,-0.79804 -2.10401,-0.6035 -5.19221,-1.66216 -6.86266,-2.35258 -1.67046,-0.69042 -4.46347,-2.47289 -6.20669,-3.96104 -1.74322,-1.48814 -3.77434,-3.84293 -4.51359,-5.23286 -0.73925,-1.38994 -0.99249,-2.64111 -0.56274,-2.7804 0.42974,-0.13927 3.39057,-1.7357 6.57962,-3.54762 l 5.79826,-3.29441 1.5308,1.89217 c 0.84194,1.04068 3.47134,2.91905 5.84312,4.17415 3.30254,1.74765 5.48939,2.28748 9.33921,2.30538 3.02576,0.014 6.09262,-0.51245 7.70396,-1.32261 1.47238,-0.74029 3.10441,-2.25795 3.62675,-3.37258 0.69999,-1.49375 0.69925,-2.56106 -0.003,-4.05929 -0.5239,-1.11799 -2.40241,-2.74462 -4.17445,-3.61476 -1.77204,-0.87013 -6.83294,-2.58592 -11.24643,-3.81286 -4.41349,-1.22694 -9.19533,-2.81695 -10.62631,-3.53337 -1.43098,-0.7164 -3.8258,-2.20716 -5.32182,-3.31278 -1.49603,-1.10562 -3.50441,-3.58556 -4.46305,-5.51099 -1.09401,-2.19666 -1.74331,-5.15375 -1.74331,-7.9381 0,-2.80404 0.65044,-5.74373 1.76711,-7.98653 0.97192,-1.95207 3.27839,-4.71297 5.12549,-6.13536 1.84709,-1.42238 5.35555,-3.325 7.79655,-4.22803 2.44101,-0.90304 7.11604,-1.83921 10.38894,-2.08037 3.2729,-0.24117 8.1387,0.003 10.81289,0.54402 2.67419,0.54038 7.17445,2.10595 10.0006,3.47906 2.82614,1.37309 6.14282,3.77684 7.37039,5.34165 1.22756,1.56482 2.08296,2.977 1.90086,3.13817 -0.18209,0.16117 -2.92,1.8248 -6.08425,3.69695 -3.16425,1.87214 -6.12899,3.4039 -6.58831,3.4039 -0.45933,0 -0.83513,-0.30346 -0.83513,-0.67434 0,-0.37089 -1.57082,-1.53273 -3.49071,-2.58186 -2.21013,-1.20773 -5.40675,-2.04072 -8.71358,-2.27061 -3.93751,-0.27374 -5.9551,0.006 -8.19823,1.1354 -2.64162,1.33042 -2.97537,1.86641 -2.97537,4.77838 0,2.9486 0.33262,3.46129 3.29315,5.07592 1.81124,0.98783 6.59308,2.63973 10.62632,3.6709 4.03323,1.03118 9.63644,2.86943 12.45158,4.08501 2.81514,1.21559 6.14773,3.39949 7.40575,4.85313 1.25803,1.45364 2.68243,4.02622 3.16535,5.71684 0.48292,1.69063 0.88017,4.02921 0.88277,5.19685 0.003,1.16763 -0.60646,4.14319 -1.3535,6.61234 -1.00608,3.32541 -2.40435,5.47576 -5.39307,8.29382 -2.35622,2.22168 -5.76994,4.40846 -8.20544,5.25629 -2.63739,0.9181 -7.45205,1.56183 -13.0967,1.75106 z m -580.61484,-1.30656 h -9.35795 v -48.79399 -48.79399 l 9.13863,0.2346 9.13863,0.23459 0.21931,48.5594 0.21933,48.55939 z M 604.33571,385.64458 c -1.87023,0.23575 -4.54806,0.149 -5.95074,-0.19279 -1.40267,-0.34179 -3.69795,-1.21272 -5.10063,-1.93539 -1.40267,-0.72267 -14.23266,-12.7801 -28.5111,-26.79428 -22.14548,-21.73564 -26.43867,-26.34877 -29.21242,-31.38946 -1.78839,-3.25001 -5.03081,-7.61297 -7.20537,-9.69547 l -3.95375,-3.78637 -3.81339,2.50982 c -2.09737,1.38039 -6.79616,3.98958 -10.44176,5.79819 -3.64559,1.80862 -9.96813,4.37631 -14.05008,5.70599 -4.08195,1.32966 -11.04542,2.98896 -15.47437,3.68731 -4.42896,0.69835 -11.56353,1.27123 -15.8546,1.27306 -4.29108,0.002 -10.75154,-0.39556 -14.3566,-0.88308 -3.60505,-0.48751 -9.84912,-1.81232 -13.87572,-2.94401 -4.02659,-1.13169 -10.85335,-3.68188 -15.17057,-5.66709 -4.31723,-1.9852 -10.81643,-5.58866 -14.44269,-8.00768 -3.62626,-2.41901 -9.85775,-7.55973 -13.84776,-11.42382 -3.99001,-3.86409 -9.40345,-10.18714 -12.02986,-14.05123 -2.6264,-3.86409 -5.97569,-9.36049 -7.44286,-12.21423 -1.46718,-2.85374 -3.78607,-8.43453 -5.15311,-12.40176 -1.36703,-3.96724 -3.07768,-10.51475 -3.80144,-14.55005 -0.72375,-4.0353 -1.31592,-11.88876 -1.31592,-17.45215 0,-5.56338 0.5837,-13.41848 1.29711,-17.45577 0.71341,-4.03728 2.29751,-10.31607 3.52022,-13.95286 1.22271,-3.63679 3.55656,-9.21595 5.18634,-12.39814 1.62978,-3.18219 4.62076,-8.28473 6.64661,-11.33898 2.02585,-3.05424 6.6636,-8.60036 10.30612,-12.32471 3.64251,-3.72434 9.52452,-8.87397 13.07112,-11.44364 3.54661,-2.56965 9.91876,-6.41481 14.16034,-8.54477 4.24158,-2.12998 11.09477,-4.94338 15.22929,-6.252 4.13454,-1.30862 10.38645,-2.88335 13.89313,-3.4994 3.55652,-0.6248 11.63842,-1.09057 18.27726,-1.05333 8.80995,0.0494 14.09792,0.53051 20.35721,1.85206 4.65066,0.98192 12.52517,3.39255 17.4989,5.35698 4.97374,1.96443 12.45379,5.72218 16.62235,8.35056 4.75107,2.99566 10.92544,8.06019 16.54691,13.57262 5.39825,5.29353 10.60381,11.35961 13.07813,15.24008 2.26073,3.54548 5.52793,9.68256 7.26046,13.63796 1.73253,3.9554 3.77225,9.42329 4.53272,12.15088 0.76047,2.72759 1.96947,8.2625 2.68666,12.29978 0.71719,4.03728 1.30173,10.91825 1.29897,15.29104 -0.003,4.3728 -0.57247,11.61091 -1.26601,16.0847 -0.69355,4.47379 -2.58336,11.97646 -4.19958,16.6726 -1.61622,4.69613 -4.15775,10.89228 -5.64785,13.76922 -1.49009,2.87693 -3.78237,6.75212 -5.09395,8.61153 l -2.38469,3.38074 5.26055,5.01561 c 3.42441,3.26496 7.33758,5.96841 11.21128,7.74541 5.39,2.47259 8.37095,5.06256 31.63499,27.48573 14.22228,13.70822 26.34778,26.07929 27.17109,27.72136 0.91379,1.8225 1.4853,4.87683 1.48285,7.92469 -0.003,2.72759 -0.48147,6.31262 -1.06504,7.96671 -0.58358,1.6541 -2.45328,4.40125 -4.15488,6.10478 -1.7016,1.70352 -4.65074,3.75366 -6.55364,4.55586 -1.9029,0.8022 -4.99,1.65143 -6.86023,1.88719 z M 463.35604,304.28192 c 4.75134,0.0535 11.44591,-0.42684 14.87684,-1.06737 3.43092,-0.64052 8.82587,-2.1137 11.98878,-3.27372 3.1629,-1.16002 8.13601,-3.46686 11.05136,-5.12633 2.91534,-1.65947 7.52836,-4.74261 10.25114,-6.85144 2.72278,-2.10882 7.4198,-6.80879 10.43783,-10.44437 3.01803,-3.63558 7.18889,-9.95863 9.26857,-14.05123 2.0814,-4.09596 4.52258,-10.59943 5.43031,-14.4667 0.907,-3.86408 1.90063,-9.51579 2.2081,-12.55932 0.30747,-3.04355 0.11426,-9.15558 -0.42935,-13.58229 -0.5436,-4.42672 -1.75808,-10.49126 -2.69883,-13.47677 -0.94075,-2.98551 -3.41512,-8.65091 -5.49859,-12.58978 -2.08347,-3.93886 -5.97589,-9.69425 -8.64983,-12.78976 -2.67393,-3.0955 -7.3383,-7.60449 -10.36526,-10.01997 -3.02697,-2.41548 -9.32904,-6.20507 -14.00462,-8.42131 -4.67557,-2.21625 -10.9876,-4.65242 -14.02673,-5.41371 -3.03912,-0.7613 -10.3356,-1.58477 -16.2144,-1.82993 -8.12638,-0.33889 -12.40596,-0.11131 -17.8522,0.94936 -3.93991,0.76729 -10.15444,2.64406 -13.81006,4.17059 -3.65562,1.52652 -8.77774,4.01426 -11.38248,5.52832 -2.60475,1.51405 -7.77817,5.52029 -11.4965,8.90277 -3.71833,3.38249 -8.20361,8.21776 -9.96729,10.74506 -1.76369,2.5273 -4.58702,7.2621 -6.27407,10.52178 -1.68706,3.25968 -3.93862,9.02482 -5.00348,12.81142 -1.64405,5.84619 -1.92758,8.81729 -1.87956,19.69614 0.0506,11.46634 0.29687,13.57478 2.34554,20.08218 1.25895,3.99891 3.47826,9.57808 4.93179,12.39814 1.45354,2.82006 4.27547,7.35905 6.27096,10.08664 1.9955,2.72759 6.06278,7.21225 9.0384,9.9659 2.97563,2.75366 7.13169,6.1447 9.2357,7.53564 2.10401,1.39094 6.12075,3.64225 8.9261,5.00289 2.80534,1.36065 7.68557,3.30104 10.84496,4.31197 3.15938,1.01095 7.55868,2.13505 9.77621,2.49803 2.21752,0.36298 7.91932,0.7037 12.67066,0.75717 z m -217.48253,13.60845 c -0.6227,0.15761 -4.95764,0.0147 -9.63321,-0.31758 -4.67558,-0.33227 -10.98761,-1.03655 -14.02674,-1.56508 -3.03912,-0.52852 -8.58605,-1.92618 -12.32652,-3.10591 -3.74046,-1.17973 -10.05249,-3.73145 -14.02673,-5.67049 -3.97424,-1.93903 -10.09499,-5.49103 -13.60167,-7.89333 -3.50669,-2.4023 -9.43728,-7.36503 -13.1791,-11.02829 -3.74183,-3.66326 -8.8434,-9.55702 -11.33684,-13.09723 -2.49344,-3.54021 -6.26689,-10.04324 -8.38545,-14.45118 -2.11857,-4.40795 -4.80132,-11.5539 -5.96168,-15.87991 -1.59128,-5.9326 -2.21705,-10.81067 -2.5464,-19.85035 -0.32735,-8.98473 -0.088,-13.93003 0.9561,-19.75534 0.76602,-4.27376 2.36244,-10.57902 3.54759,-14.01168 1.18517,-3.43268 3.50643,-8.86262 5.15838,-12.06657 1.65194,-3.20394 4.76876,-8.42895 6.92625,-11.61114 2.15751,-3.18219 7.3816,-9.15164 11.6091,-13.26545 4.2275,-4.11381 11.03721,-9.63659 15.13269,-12.27284 4.09548,-2.63625 10.86888,-6.26164 15.05199,-8.05642 4.18311,-1.79478 11.35232,-4.19232 15.93156,-5.32787 4.57924,-1.13554 12.05573,-2.29029 16.61441,-2.56609 l 8.28853,-0.50146 v -3.07305 c 0,-1.69017 0.58343,-6.37628 1.29651,-10.41356 0.71308,-4.03728 2.41835,-10.87399 3.78948,-15.192682 1.37113,-4.31869 4.23826,-11.33332 6.37141,-15.58808 2.13315,-4.25477 6.24735,-11.13574 9.14268,-15.29105 2.93856,-4.21738 9.22175,-11.39014 14.22227,-16.235879 4.92693,-4.77442 12.40097,-10.93766 16.60899,-13.69609 4.20802,-2.75843 9.88394,-6.21946 12.61315,-7.69118 2.72921,-1.47173 8.26545,-3.97065 12.30276,-5.55315 4.0373,-1.5825 10.98544,-3.76762 15.44031,-4.8558 4.45487,-1.0882 11.09218,-2.37554 14.74959,-2.86079 3.6574,-0.48525 10.73453,-0.88008 15.72694,-0.87739 4.99241,0.002 12.71131,0.54974 17.15311,1.2157 4.4418,0.66596 11.71019,2.1599 16.15199,3.31985 4.4418,1.15996 12.66656,4.29407 18.27725,6.9647 5.86338,2.79091 13.86103,7.51303 18.80784,11.10489 4.73362,3.43705 11.55899,9.33343 15.16749,13.10306 3.6085,3.769639 8.62967,9.870739 11.15815,13.557989 2.52848,3.68728 6.12002,9.8636 7.9812,13.72517 l 3.38396,7.02104 10.85551,0.48663 c 6.91118,0.30982 14.12847,1.22801 19.86328,2.52703 4.95429,1.12223 12.40663,3.40836 16.56077,5.08032 4.15414,1.67194 10.13739,4.50744 13.29611,6.3011 3.15871,1.793662 8.76427,5.474612 12.45679,8.179892 3.69251,2.70527 9.61628,7.91866 13.16392,11.5853 3.54765,3.66664 8.52315,9.7155 11.05667,13.44189 2.53352,3.7264 5.81666,9.12912 7.29588,12.00605 1.47922,2.87694 3.98177,9.01402 5.56123,13.63796 1.57947,4.62395 3.32679,11.49251 3.88295,15.26348 0.56644,3.84065 0.83368,11.11152 0.6076,16.53086 -0.22198,5.321 -1.09625,12.37115 -1.94282,15.66698 -0.84656,3.29584 -1.85911,5.99244 -2.25011,5.99244 -0.391,0 -0.71091,-0.88183 -0.71091,-1.95962 0,-1.0778 -1.10154,-5.68104 -2.44788,-10.22942 -1.34633,-4.54839 -3.963,-11.60809 -5.81483,-15.68823 -1.85183,-4.08015 -5.47038,-10.55593 -8.04121,-14.39064 -2.57085,-3.8347 -7.06208,-9.66965 -9.98052,-12.96655 -2.91844,-3.29689 -8.24022,-8.44921 -11.82616,-11.44959 -3.58595,-3.00038 -9.58028,-7.40437 -13.32075,-9.78664 -3.74046,-2.38228 -9.47867,-5.63129 -12.75157,-7.22003 -3.2729,-1.58874 -8.81984,-3.89256 -12.32652,-5.11961 -3.50668,-1.22705 -9.43616,-2.9386 -13.17663,-3.80345 -3.74046,-0.86486 -11.26572,-1.95228 -16.7228,-2.41651 -6.83949,-0.58182 -12.64977,-0.57437 -18.70231,0.024 -4.82919,0.47741 -11.61752,1.43407 -15.08518,2.12591 -3.46767,0.69185 -9.7797,2.38872 -14.02674,3.77082 -4.24703,1.3821 -10.01716,3.63114 -12.82251,4.99786 -2.80535,1.36671 -8.35228,4.53357 -12.32652,7.03745 -3.97424,2.50389 -10.13118,6.93135 -13.68209,9.8388 -3.55091,2.90746 -8.85807,7.97354 -11.79369,11.25796 -2.93563,3.28442 -7.35069,8.94723 -9.81125,12.58402 -2.46056,3.63679 -5.88029,9.30499 -7.59939,12.59599 -1.71912,3.29101 -4.44325,9.78772 -6.05365,14.43712 -1.6104,4.6494 -3.57769,11.81328 -4.37178,15.91973 -1.01112,5.22889 -1.42718,11.55311 -1.38839,21.10423 0.0431,10.62315 0.45875,15.49954 1.88009,22.05912 1.00359,4.63163 3.00871,11.69857 4.45582,15.70431 1.44712,4.00574 4.55724,10.94126 6.9114,15.41227 2.35416,4.47101 6.37799,10.98003 8.94187,14.4645 2.56386,3.48446 7.13662,9.03199 10.16169,12.32783 l 5.50011,5.99243 h -68.44034 c -37.64218,0 -68.9498,0.12895 -69.57248,0.28655 z"
       id="path1684" />
    <path
       style="fill:#005293;fill-opacity:1;stroke-width:1.74463"
       d="m 218.83958,314.16725 c -33.35451,-7.04659 -63.86372,-35.10154 -73.74607,-67.81371 -4.03681,-13.36248 -3.72538,-38.20189 0.65164,-51.97523 7.75343,-24.39797 26.91138,-46.25497 50.34271,-57.43516 11.34372,-5.41262 17.93859,-7.16831 38.63008,-10.28414 6.13825,-0.92432 6.63497,-1.42945 6.63497,-6.74726 0,-3.16148 1.81628,-11.84513 4.03617,-19.29699 11.76509,-39.493722 45.63589,-71.149771 87.18144,-81.480821 15.11064,-3.75754 40.43616,-4.51477 53.86695,-1.61062 31.33725,6.77608 63.04121,29.77229 77.45789,56.183389 5.64472,10.34104 6.02432,10.6523 14.1546,11.60647 22.61783,2.65439 32.43751,5.07252 45.51013,11.20704 38.88119,18.245572 64.38454,59.457552 60.21586,97.305402 -0.67385,6.11779 -1.79286,11.12325 -2.4867,11.12325 -0.69384,0 -2.27208,-3.67711 -3.50719,-8.17135 -10.2226,-37.19725 -46.46464,-70.19126 -86.64924,-78.88369 -17.93782,-3.88018 -48.10653,-2.64357 -64.0009,2.62338 -25.49797,8.44931 -52.23666,29.12838 -65.1479,50.38382 -10.96935,18.05859 -15.08932,32.51164 -15.88022,55.70858 -0.52471,15.38963 0.0363,23.66849 2.15624,31.82527 4.00885,15.42396 14.90104,36.75184 24.73882,48.44085 l 8.32506,9.89163 -75.73581,-0.13676 c -56.59137,-0.10219 -78.5196,-0.72487 -86.74853,-2.46335 z"
       id="path3207" />
    <path
       style="fill:#00223c;fill-opacity:1;stroke-width:1.74463"
       d="m 596.10237,383.11037 c -6.63383,-2.92813 -50.93454,-46.53482 -60.95123,-59.99636 -4.09092,-5.49783 -8.49743,-10.39131 -9.79225,-10.87441 -1.29481,-0.48309 -5.59832,1.11281 -9.56335,3.54644 -3.96502,2.43365 -13.39441,6.47178 -20.95418,8.97364 -51.69258,17.10732 -109.43158,-12.51032 -126.25168,-64.7617 -4.19904,-13.04425 -4.95918,-38.80704 -1.54811,-52.46868 8.07116,-32.32567 36.4431,-60.6095 70.5851,-70.36591 12.40404,-3.54458 37.96369,-3.55484 52.06087,-0.0209 26.48804,6.64012 52.853,27.66822 63.79398,50.88067 13.99699,29.69603 13.42187,60.15326 -1.69808,89.9279 -7.07107,13.92452 -6.94966,14.2289 9.81711,24.61042 5.3522,3.31394 21.07707,17.08583 34.94415,30.6042 24.97894,24.3508 25.21286,24.65088 25.21286,32.34264 0,6.37585 -0.97323,8.71006 -5.44406,13.05697 -2.99425,2.91124 -6.51202,5.29318 -7.81727,5.29318 -1.30522,0 -3.43353,0.35884 -4.72952,0.79742 -1.29601,0.43857 -4.74496,-0.25691 -7.66434,-1.5455 z M 493.10043,299.74742 c 12.61695,-4.82645 29.17087,-19.29444 36.68334,-32.06094 16.68377,-28.35194 11.53532,-65.32138 -12.3466,-88.6572 -29.36509,-28.69361 -75.55445,-29.05254 -105.99316,-0.82363 -17.07838,15.83852 -24.34977,34.40654 -22.81516,58.26019 1.97108,30.63789 21.00707,54.63725 51.7499,65.24296 12.64619,4.36271 38.72601,3.39247 52.72168,-1.96138 z"
       id="path4126" />
  </g>
</svg>
